<?xml version="1.0" encoding="UTF-8"?>
<svg width="18px" height="18px" viewBox="0 0 18 18" version="1.1" xmlns="http://www.w3.org/2000/svg" xmlns:xlink="http://www.w3.org/1999/xlink">
    <!-- Generator: Sketch 43.1 (39012) - http://www.bohemiancoding.com/sketch -->
    <title>noun_Cloud Computing_793556</title>
    <desc>Created with Sketch.</desc>
    <defs></defs>
    <g id="DRP---Dark-Copy" stroke="none" stroke-width="1" fill="none" fill-rule="evenodd">
        <g id="Desktop-HD" transform="translate(-847.000000, -768.000000)" fill-rule="nonzero" fill="#838A92">
            <g id="noun_Cloud-Computing_793556" transform="translate(847.000000, 768.000000)">
                <g id="Group">
                    <path d="M15.48,5.58 C15.48,4.32 14.76,2.97 13.5,2.25 C12.42,1.62 11.25,1.62 10.17,2.16 C9.99,1.89 9.72,1.62 9.54,1.35 C7.74,-0.45 4.95,-0.45 3.15,1.35 C1.98,2.52 1.53,4.23 1.98,5.85 C0.81,6.39 0,7.65 0,9 C0,10.98 1.62,12.6 3.6,12.6 L4.5,12.6 L4.5,10.8 L3.6,10.8 C2.61,10.8 1.8,9.99 1.8,9 C1.8,8.1 2.43,7.38 3.33,7.2 C3.6,7.2 3.87,7.02 4.05,6.75 C4.14,6.48 4.14,6.12 4.05,5.94 C3.33,4.86 3.51,3.51 4.41,2.61 C5.4,1.53 7.2,1.53 8.19,2.61 C8.55,2.97 8.73,3.33 8.91,3.78 C9,4.05 9.27,4.32 9.54,4.41 C9.81,4.5 10.17,4.41 10.44,4.14 C10.98,3.6 11.88,3.42 12.6,3.87 C13.41,4.32 13.86,5.31 13.59,6.03 C13.5,6.3 13.5,6.57 13.68,6.84 C13.86,7.02 14.13,7.2 14.4,7.2 C15.39,7.2 16.2,8.01 16.2,9 C16.2,9.99 15.39,10.8 14.4,10.8 L13.5,10.8 L13.5,12.6 L14.4,12.6 C16.38,12.6 18,10.98 18,9 C18,7.38 16.92,6.03 15.48,5.58 Z" id="Shape"></path>
                    <path d="M9,9 C7.47,9 6.3,10.17 6.3,11.7 L8.1,11.7 C8.1,11.16 8.46,10.8 9,10.8 C9.54,10.8 9.9,11.16 9.9,11.7 C9.9,12.06 9.72,12.33 9.45,12.51 C8.64,12.96 8.1,13.86 8.1,14.85 L8.1,15.3 L9.9,15.3 L9.9,14.85 C9.9,14.49 10.08,14.22 10.26,14.13 C11.16,13.68 11.7,12.78 11.7,11.79 C11.7,10.17 10.53,9 9,9 Z" id="Shape"></path>
                    <rect id="Rectangle-path" x="8.1" y="16.2" width="1.8" height="1.8"></rect>
                </g>
            </g>
        </g>
    </g>
</svg>