<?xml version="1.0" encoding="UTF-8"?>
<svg width="20px" height="20px" viewBox="0 0 20 20" version="1.1" xmlns="http://www.w3.org/2000/svg" xmlns:xlink="http://www.w3.org/1999/xlink">
    <!-- Generator: Sketch 43.1 (39012) - http://www.bohemiancoding.com/sketch -->
    <title>Group</title>
    <desc>Created with Sketch.</desc>
    <defs></defs>
    <g id="Page-1" stroke="none" stroke-width="1" fill="none" fill-rule="evenodd">
        <g id="Group" transform="translate(1.000000, 1.000000)">
            <path d="M9,5 C7.47,5 6.3,6.17 6.3,7.7 L8.1,7.7 C8.1,7.16 8.46,6.8 9,6.8 C9.54,6.8 9.9,7.16 9.9,7.7 C9.9,8.06 9.72,8.33 9.45,8.51 C8.64,8.96 8.1,9.86 8.1,10.85 L8.1,11.3 L9.9,11.3 L9.9,10.85 C9.9,10.49 10.08,10.22 10.26,10.13 C11.16,9.68 11.7,8.78 11.7,7.79 C11.7,6.17 10.53,5 9,5 Z" id="Shape" fill="#838A92" fill-rule="nonzero"></path>
            <rect id="Rectangle-path" fill="#838A92" fill-rule="nonzero" x="8.1" y="12.2" width="1.8" height="1.8"></rect>
            <circle id="Oval" stroke="#838A92" cx="9" cy="9" r="9"></circle>
        </g>
    </g>
</svg>