<?xml version="1.0" encoding="UTF-8"?>
<svg width="147px" height="18px" viewBox="0 0 147 18" version="1.1" xmlns="http://www.w3.org/2000/svg" xmlns:xlink="http://www.w3.org/1999/xlink">
    <!-- Generator: Sketch 43.1 (39012) - http://www.bohemiancoding.com/sketch -->
    <title>logo</title>
    <desc>Created with Sketch.</desc>
    <defs></defs>
    <g id="HomePage---Dark" stroke="none" stroke-width="1" fill="none" fill-rule="evenodd">
        <g id="Desktop-HD" transform="translate(-146.000000, -24.000000)" fill-rule="nonzero" fill="#FFFFFF">
            <g id="logo" transform="translate(146.000000, 24.000000)">
                <polygon id="Shape" points="58.4184507 2.96204119 61.8701408 2.96204119 56.8508451 14.396195 53.3991549 14.396195 50.2876056 6.14665658 47.1316901 14.396195 43.715493 14.396195 38.7169014 2.96204119 42.3164789 2.96204119 45.5374648 11.6851181 48.7347887 2.96204119 51.9971831 2.96204119 55.2507042 11.6851181"></polygon>
                <path d="M78.4305634,3.54911812 C79.5697599,4.00591266 80.5603229,4.73562964 81.3025352,5.66481042 C82.6982937,7.45270732 82.6982937,9.88060583 81.3025352,11.6685027 C80.5622032,12.6034173 79.5715485,13.338933 78.4305634,13.8008104 C75.8471586,14.8347814 72.9245315,14.8347814 70.3411268,13.8008104 C69.2030462,13.3395992 68.2138725,12.6072902 67.4721127,11.6768104 C66.0757934,9.8860207 66.0757934,7.45560015 67.4721127,5.66481042 C68.2119761,4.73686733 69.1993193,4.0072681 70.3352113,3.54911812 C72.9241002,2.5262032 75.8446322,2.5262032 78.4335211,3.54911812 L78.4305634,3.54911812 Z M72.1423944,5.51804119 C71.4709214,5.8116178 70.8936205,6.26522255 70.4683099,6.83342581 C70.0667469,7.36952206 69.8528196,8.00910299 69.8560563,8.66388735 C69.8480701,9.32874679 70.066683,9.97867666 70.4801408,10.519272 C70.9091335,11.0853095 71.4839789,11.5406421 72.1512676,11.8429643 C72.8587736,12.17154 73.6389981,12.3394592 74.4287324,12.3331181 C75.2109985,12.3409676 75.9842037,12.1758788 76.685493,11.851272 C77.3465785,11.5500228 77.9108533,11.0904982 78.3211268,10.519272 C78.7147755,9.97234981 78.9211187,9.3261239 78.9126761,8.66665658 C78.9196848,8.01427227 78.7132559,7.37550875 78.3211268,6.83619504 C77.9092007,6.27259182 77.3475022,5.81923149 76.6914085,5.52081042 C75.9901192,5.19620364 75.216914,5.03111482 74.4346479,5.03896427 C73.6413596,5.03130194 72.8568961,5.19525343 72.1423944,5.51804119 L72.1423944,5.51804119 Z" id="Shape"></path>
                <path d="M98.5284507,10.6245027 C99.3570187,10.353696 100.078749,9.85462133 100.598873,9.19281042 C101.085178,8.52406863 101.331709,7.72784538 101.302817,6.91927196 C101.353881,5.75044601 100.752327,4.64080169 99.714507,3.98942581 C98.6556338,3.29711812 97.1590141,2.95096427 95.2246479,2.95096427 L88.7885915,2.95096427 L88.7885915,5.08881042 L95.2246479,5.08881042 C96.156338,5.08881042 96.8750704,5.24942581 97.3749296,5.57065658 C97.8846004,5.89082541 98.1749729,6.43982459 98.1380282,7.01342581 C98.1720572,7.58919616 97.8884791,8.14110979 97.3867606,8.47557966 C96.8869014,8.80788735 96.168169,8.97404119 95.2364789,8.97404119 L88.7885915,8.97404119 L88.7885915,14.396195 L92.1338028,14.396195 L92.1338028,11.1285027 L95.5440845,11.1285027 L97.8925352,14.396195 L101.687324,14.396195 L98.5284507,10.6245027 Z" id="Shape"></path>
                <path d="M120.173239,9.3257335 C119.551573,8.77618268 118.756884,8.42941791 117.907606,8.33711812 C118.617648,8.21429294 119.27079,7.8916304 119.779859,7.41219504 C120.22922,6.98657461 120.477472,6.40999062 120.469014,5.81157966 C120.469014,4.93096427 119.995775,4.23404119 119.049296,3.72081042 C118.102817,3.20757966 116.811268,2.95188735 115.174648,2.9537335 L108.357042,2.9537335 L108.357042,5.06388735 L114.997183,5.06388735 C115.516874,5.02670713 116.03667,5.1346411 116.490845,5.37404119 C116.833068,5.56556981 117.038729,5.91470353 117.029155,6.28788735 C117.041412,6.66904963 116.836417,7.02759937 116.490845,7.22942581 C116.037783,7.47316255 115.518924,7.58859761 114.997183,7.5617335 L111.702254,7.5617335 L111.702254,7.5617335 L108.357042,7.5617335 L108.357042,14.396195 L115.40831,14.396195 C117.129718,14.396195 118.492254,14.1137335 119.495915,13.5488104 C120.499577,12.9838873 121.000423,12.2103489 120.998451,11.228195 C121.015187,10.5146606 120.716604,9.82630101 120.173239,9.3257335 L120.173239,9.3257335 Z M116.869437,11.923272 C116.292276,12.1932704 115.650436,12.3191798 115.006056,12.2888104 L111.702254,12.2888104 L111.702254,9.5777335 L114.997183,9.5777335 C115.639729,9.53716553 116.282366,9.655591 116.860563,9.92111812 C117.270287,10.0972537 117.534272,10.4793259 117.537887,10.9014258 C117.540816,11.3333584 117.281719,11.7294338 116.869437,11.923272 L116.869437,11.923272 Z" id="Shape"></path>
                <polygon id="Shape" points="127.668169 2.96204119 131.016338 2.96204119 131.016338 12.1420412 137.369577 12.1420412 137.369577 14.396195 127.668169 14.396195"></polygon>
                <polygon id="Shape" points="143.595634 2.96204119 143.595634 6.08850273 146.93493 2.96204119"></polygon>
                <polygon id="Shape" points="143.595634 8.75527196 143.595634 14.396195 146.940845 14.396195 146.940845 5.62050273"></polygon>
                <path d="M9.05957746,11.4109643 C10.045493,12.3340412 11.0314085,13.2571181 12.0173239,14.180195 L12.0942254,14.2494258 C12.1062468,14.2587109 12.2214085,14.1718873 12.2214085,14.1718873 L13.6825352,12.8038873 C13.7091457,12.7713975 13.7423075,12.7441127 13.7801408,12.7235797 C14.4584507,13.3466566 15.1042254,13.952195 15.7470423,14.5595797 L15.6435211,14.6620412 L12.2450704,17.8909643 L12.168169,17.960195 C12.1505849,17.9751511 12.1292005,17.9856386 12.1060563,17.9906566 C12.0932445,17.997582 11.9788732,17.9131181 11.9788732,17.9131181 L8.86140845,14.9860412 L0.115352113,6.79465658 C0.073943662,6.75588735 0.0207042254,6.72819504 -1.59872116e-14,6.67004119 C0.0311059901,6.6270833 0.0690033321,6.58880019 0.112394366,6.55650273 C0.692112676,6.00265658 1.27380282,5.45804119 1.85746479,4.92265658 C1.88112676,4.8977335 1.90774648,4.87557966 1.9343662,4.85065658 C1.99492531,4.84276348 2.01568409,4.86127367 2.03492958,4.88111812 L3.87464789,6.60081042 L3.94267606,6.67557966 L4.00478873,6.74204119 L4.33901408,7.05496427 L6.8471831,9.41157966 C6.96549296,9.52234889 6.93295775,9.52511812 7.05126761,9.41157966 C8.04802817,8.47834889 9.04774648,7.54788735 10.0415493,6.60911812 C10.6952113,5.99157966 11.3488732,5.37404119 12.0114085,4.76204119 C12.8514085,3.98388735 13.6825352,3.20019504 14.5195775,2.41927196 L17.0188732,0.0792719634 C17.1253521,-0.0204203443 17.0987324,-0.0204203443 17.2052113,0.0792719634 C18.3666197,1.16481042 19.5280282,2.25219504 20.6894366,3.34142581 C20.7160563,3.36357966 20.7397183,3.38850273 20.7633803,3.41065658 C20.7750269,3.42235584 20.7397183,3.47711812 20.7397183,3.47711812 L20.6805634,3.5297335 L18.9059155,5.19127196 L18.8290141,5.26050273 C18.794137,5.27162917 18.6929577,5.18296427 18.6929577,5.18296427 L17.2140845,3.79834889 L17.1312676,3.72081042 C17.1163909,3.70744734 17.0277465,3.76788735 17.0277465,3.76788735 C16.0664789,4.66788735 15.1022535,5.56511812 14.1469014,6.46788735 C13.4429577,7.13250273 12.7330986,7.79157966 12.0261972,8.45619504 C11.5204225,8.91034889 11.0323944,9.38111812 10.5473239,9.84081042 L9.0684507,11.2254258 C9.03232188,11.2502342 8.99954649,11.2790609 8.97084507,11.311272 L9.05957746,11.4109643 Z" id="Shape"></path>
                <path d="M13.2861972,9.74111812 C13.3004197,9.72411892 13.3162592,9.7083621 13.3335211,9.69404119 L15.2412676,7.91065658 L15.2619718,7.91065658 C15.2750824,7.91834668 15.2870216,7.92766191 15.2974648,7.93834889 L15.365493,7.99927196 L18.9916901,11.3943489 C19.0320497,11.4297595 19.0686958,11.4687064 19.1011268,11.5106566 C19.1144451,11.5291819 19.1303622,11.5459474 19.1484507,11.5605027 L19.2815493,11.6851181 L21.9730986,14.2051181 L22.0559155,14.2826566 C22.0664503,14.2903472 22.0785162,14.2959956 22.0914085,14.299272 L22.1771831,14.2245027 L22.9107042,13.5349643 L25.1497183,11.4386566 L25.2325352,11.3583489 C25.2532394,11.3389643 25.2532394,11.3223489 25.2325352,11.3029643 C25.2094158,11.2776282 25.1847253,11.2535867 25.1585915,11.2309643 C24.6143662,10.7186566 24.0671831,10.2091181 23.52,9.69681042 L23.4401408,9.61650273 C23.4371711,9.60937985 23.4371711,9.60147177 23.4401408,9.59434889 L23.4549296,9.5777335 C23.4672196,9.56346771 23.4811011,9.550471 23.496338,9.53896427 C24.103662,8.96850273 24.7109859,8.39988735 25.3183099,7.83311812 C25.339567,7.8055383 25.3681019,7.78359284 25.4011268,7.76942581 L25.4366197,7.79434889 L25.5135211,7.86634889 L27.1521127,9.38665658 C27.178492,9.41371557 27.2071781,9.43872107 27.2378873,9.46142581 L27.2585915,9.46142581 L27.288169,9.44204119 C27.3147887,9.41988735 27.3384507,9.39496427 27.3621127,9.37281042 L30.1098592,6.78911812 C30.1596293,6.74778197 30.204276,6.70133622 30.2429577,6.65065658 C30.2601494,6.6308763 30.2789369,6.6123604 30.2991549,6.59527196 C30.9084507,6.02850273 31.5157746,5.45988735 32.1211268,4.88942581 L32.1921127,4.82850273 C32.2038433,4.83236321 32.2148302,4.83797407 32.2246479,4.84511812 L32.2985915,4.91434889 L34.0732394,6.57588735 C34.0909859,6.59250273 34.1087324,6.60634889 34.1235211,6.62296427 C34.1826761,6.67834889 34.1826761,6.67834889 34.1235211,6.73650273 C34.0643662,6.79465658 34.0673239,6.78634889 34.0407042,6.81404119 C30.0970423,10.5063489 26.144507,14.2069643 22.1830986,17.9158873 C22.0647887,18.0266566 22.0973239,18.0266566 21.9819718,17.9158873 L17.2229577,13.4546566 C17.1780116,13.4079711 17.1285002,13.3653239 17.0750704,13.327272 C17.0543662,13.327272 17.0366197,13.291272 17.0159155,13.2746566 C16.4066197,12.704195 15.796338,12.1328104 15.1850704,11.5605027 C15.1111268,11.491272 15.0401408,11.4165027 14.9691549,11.3417335 C14.9366197,11.311272 14.9070423,11.275272 14.8715493,11.2448104 L13.3778873,9.84357966 C13.3512676,9.82142581 13.3276056,9.79650273 13.3039437,9.77434889 C13.2957295,9.7644855 13.2896965,9.75318868 13.2861972,9.74111812 Z" id="Shape"></path>
                <path d="M27.054507,3.71250273 C27.0188336,3.73576494 26.9869524,3.76374855 26.9598592,3.79557966 L25.9897183,4.70388735 L24.1943662,6.38481042 C24.144277,6.4253084 24.1013514,6.4729753 24.0671831,6.52604119 L24.0346479,6.55927196 L23.9577465,6.62850273 L20.3640845,9.99311812 L20.2783099,10.0706566 L20.2457746,10.0845027 L20.183662,10.0346566 L18.3380282,8.30388735 C18.3200127,8.28926259 18.3041047,8.27250675 18.2907042,8.25404119 C18.2837831,8.24594767 18.2837831,8.23444241 18.2907042,8.22634889 C18.3138237,8.2010128 18.3385141,8.17697132 18.3646479,8.15434889 C20.0525352,6.57034889 21.7433803,4.98727196 23.4371831,3.40511812 C24.0109859,2.85127196 24.605493,2.29742581 25.1911268,1.74357966 L26.9480282,0.0986565788 C26.9796395,0.0654420759 27.0142772,0.0348652698 27.0515493,0.00727196341 L27.0840845,0.00727196341 L27.1521127,0.0681950403 L30.7930986,3.47988735 L30.8433803,3.52696427 C30.8788732,3.56019504 30.8788732,3.57127196 30.8433803,3.6017335 L30.8078873,3.63219504 L28.98,5.34634889 L28.9178873,5.39619504 L28.8942254,5.39619504 L28.8676056,5.37681042 L28.781831,5.29927196 C28.2435211,4.79250273 27.7022535,4.28850273 27.1609859,3.7817335 C27.1343662,3.75681042 27.1077465,3.72911812 27.078169,3.70419504 L27.054507,3.71250273 Z" id="Shape"></path>
                <path d="M10.7780282,3.43557966 L10.7247887,3.49096427 L8.81408451,5.2577335 L8.81408451,5.2577335 L8.81408451,5.2577335 C8.7797083,5.23300694 8.74800705,5.20518126 8.71943662,5.17465658 L7.22577465,3.79004119 L7.13704225,3.71527196 L7.11633803,3.71527196 C7.10966201,3.71293657 7.10230983,3.71293657 7.0956338,3.71527196 C7.06901408,3.74019504 7.03943662,3.76511812 7.0128169,3.79281042 L5.36535211,5.33250273 C5.25887324,5.43219504 5.28253521,5.43219504 5.17901408,5.33250273 C4.58746479,4.77865658 3.98901408,4.21834889 3.38366197,3.65157966 C3.36048436,3.63172616 3.33874603,3.61044822 3.31859155,3.58788735 C3.31119286,3.57891495 3.31119286,3.56639821 3.31859155,3.55742581 L3.34225352,3.53250273 C3.36887324,3.50757966 3.39549296,3.47988735 3.42507042,3.45496427 L7.00690141,0.0986565788 C7.14887324,-0.0314972674 7.10746479,-0.0342664981 7.24647887,0.0986565788 L10.686338,3.32204119 C10.7193033,3.35813335 10.7499218,3.39604785 10.7780282,3.43557966 L10.7780282,3.43557966 Z" id="Shape"></path>
            </g>
        </g>
    </g>
</svg>