<?xml version="1.0" encoding="UTF-8"?>
<svg width="18px" height="13px" viewBox="0 0 18 13" version="1.1" xmlns="http://www.w3.org/2000/svg" xmlns:xlink="http://www.w3.org/1999/xlink">
    <!-- Generator: Sketch 43.1 (39012) - http://www.bohemiancoding.com/sketch -->
    <title>Group</title>
    <desc>Created with Sketch.</desc>
    <defs></defs>
    <g id="HomePage---Dark" stroke="none" stroke-width="1" fill="none" fill-rule="evenodd">
        <g id="Tablet-Portrait" transform="translate(-721.000000, -25.000000)" fill-rule="nonzero" fill="#FFFFFF">
            <g id="Group" transform="translate(721.000000, 25.000000)">
                <path d="M1.33339655,0.110495593 C0.596983858,0.110495593 0,0.707457228 0,1.44389214 C0,2.18028261 0.596983858,2.77728869 1.33339655,2.77728869 L16.4452241,2.77728869 C17.1816368,2.77728869 17.7786206,2.18028261 17.7786206,1.44389214 C17.7786206,0.707457228 17.1816368,0.110495593 16.4452241,0.110495593 L1.33339655,0.110495593 Z M1.33339655,5.22184903 C0.596983858,5.22184903 0,5.81881066 0,6.55525002 C0,7.29164049 0.596983858,7.88864657 1.33339655,7.88864657 L16.4452241,7.88864657 C17.1816368,7.88864657 17.7786206,7.29164049 17.7786206,6.55525002 C17.7786206,5.81881066 17.1816368,5.22184903 16.4452241,5.22184903 L1.33339655,5.22184903 Z M1.33339655,10.3332069 C0.596983858,10.3332069 0,10.9301685 0,11.6666035 C0,12.4029939 0.596983858,13 1.33339655,13 L16.4452241,13 C17.1816368,13 17.7786206,12.4029939 17.7786206,11.6666035 C17.7786206,10.9301685 17.1816368,10.3332069 16.4452241,10.3332069 L1.33339655,10.3332069 Z" id="Shape"></path>
            </g>
        </g>
    </g>
</svg>